<?xml version="1.0" encoding="UTF-8" standalone="no"?>
<!-- Created with Inkscape (http://www.inkscape.org/) -->

<svg
   xmlns:dc="http://purl.org/dc/elements/1.1/"
   xmlns:cc="http://creativecommons.org/ns#"
   xmlns:rdf="http://www.w3.org/1999/02/22-rdf-syntax-ns#"
   xmlns:svg="http://www.w3.org/2000/svg"
   xmlns="http://www.w3.org/2000/svg"
   xmlns:sodipodi="http://sodipodi.sourceforge.net/DTD/sodipodi-0.dtd"
   xmlns:inkscape="http://www.inkscape.org/namespaces/inkscape"
   width="210mm"
   height="297mm"
   viewBox="0 0 210 297"
   version="1.1"
   id="svg8"
   inkscape:version="0.92.3 (2405546, 2018-03-11)"
   sodipodi:docname="explosion_2.svg">
  <defs
     id="defs2" />
  <sodipodi:namedview
     id="base"
     pagecolor="#ffffff"
     bordercolor="#666666"
     borderopacity="1.0"
     inkscape:pageopacity="0.0"
     inkscape:pageshadow="2"
     inkscape:zoom="0.35"
     inkscape:cx="1369.206"
     inkscape:cy="-1031.9418"
     inkscape:document-units="mm"
     inkscape:current-layer="layer10"
     showgrid="false"
     inkscape:pagecheckerboard="true"
     inkscape:window-width="1791"
     inkscape:window-height="1056"
     inkscape:window-x="129"
     inkscape:window-y="0"
     inkscape:window-maximized="1"
     showguides="false" />
  <metadata
     id="metadata5">
    <rdf:RDF>
      <cc:Work
         rdf:about="">
        <dc:format>image/svg+xml</dc:format>
        <dc:type
           rdf:resource="http://purl.org/dc/dcmitype/StillImage" />
        <dc:title></dc:title>
      </cc:Work>
    </rdf:RDF>
  </metadata>
  <g
     inkscape:groupmode="layer"
     id="layer10"
     inkscape:label="background"
     style="display:inline">
    <rect
       style="display:inline;opacity:0.452;fill:none;fill-opacity:1;stroke:none;stroke-width:0.95599997;stroke-linecap:square;stroke-miterlimit:4;stroke-dasharray:none;stroke-opacity:1"
       id="rect1393"
       width="123.97619"
       height="123.97619"
       x="111.88095"
       y="343.1131"
       inkscape:export-xdpi="69.931702"
       inkscape:export-ydpi="69.931702" />
    <rect
       style="display:inline;opacity:0.452;fill:none;fill-opacity:1;stroke:none;stroke-width:0.95599997;stroke-linecap:square;stroke-miterlimit:4;stroke-dasharray:none;stroke-opacity:1"
       id="rect1399"
       width="123.97619"
       height="123.97619"
       x="235.85715"
       y="343.1131"
       inkscape:export-xdpi="69.931702"
       inkscape:export-ydpi="69.931702" />
    <rect
       y="343.1131"
       x="359.83334"
       height="123.97619"
       width="123.97619"
       id="rect1556"
       style="display:inline;opacity:0.452;fill:none;fill-opacity:1;stroke:none;stroke-width:0.95599997;stroke-linecap:square;stroke-miterlimit:4;stroke-dasharray:none;stroke-opacity:1"
       inkscape:export-xdpi="69.931702"
       inkscape:export-ydpi="69.931702" />
    <rect
       style="display:inline;opacity:0.452;fill:none;fill-opacity:1;stroke:none;stroke-width:0.95599997;stroke-linecap:square;stroke-miterlimit:4;stroke-dasharray:none;stroke-opacity:1"
       id="rect1558"
       width="123.97619"
       height="123.97619"
       x="111.88095"
       y="467.08929"
       inkscape:export-xdpi="69.931702"
       inkscape:export-ydpi="69.931702" />
    <rect
       y="467.08929"
       x="235.85715"
       height="123.97619"
       width="123.97619"
       id="rect1560"
       style="display:inline;opacity:0.452;fill:none;fill-opacity:1;stroke:none;stroke-width:0.95599997;stroke-linecap:square;stroke-miterlimit:4;stroke-dasharray:none;stroke-opacity:1"
       inkscape:export-xdpi="69.931702"
       inkscape:export-ydpi="69.931702" />
    <rect
       style="display:inline;opacity:0.452;fill:none;fill-opacity:1;stroke:none;stroke-width:0.95599997;stroke-linecap:square;stroke-miterlimit:4;stroke-dasharray:none;stroke-opacity:1"
       id="rect1562"
       width="123.97619"
       height="123.97619"
       x="359.83334"
       y="467.08929"
       inkscape:export-xdpi="69.931702"
       inkscape:export-ydpi="69.931702" />
    <rect
       y="591.06549"
       x="111.88095"
       height="123.97619"
       width="123.97619"
       id="rect1564"
       style="display:inline;opacity:0.452;fill:none;fill-opacity:1;stroke:none;stroke-width:0.95599997;stroke-linecap:square;stroke-miterlimit:4;stroke-dasharray:none;stroke-opacity:1"
       inkscape:export-xdpi="69.931702"
       inkscape:export-ydpi="69.931702" />
    <rect
       style="display:inline;opacity:0.452;fill:none;fill-opacity:1;stroke:none;stroke-width:0.95599997;stroke-linecap:square;stroke-miterlimit:4;stroke-dasharray:none;stroke-opacity:1"
       id="rect1566"
       width="123.97619"
       height="123.97619"
       x="235.85715"
       y="591.06549"
       inkscape:export-xdpi="69.931702"
       inkscape:export-ydpi="69.931702" />
    <rect
       y="591.06549"
       x="359.83334"
       height="123.97619"
       width="123.97619"
       id="rect1568"
       style="display:inline;opacity:0.452;fill:none;fill-opacity:1;stroke:none;stroke-width:0.95599997;stroke-linecap:square;stroke-miterlimit:4;stroke-dasharray:none;stroke-opacity:1"
       inkscape:export-xdpi="69.931702"
       inkscape:export-ydpi="69.931702" />
    <g
       style="display:inline"
       id="g1403"
       transform="translate(79.646317,198.31399)"
       inkscape:export-xdpi="69.931702"
       inkscape:export-ydpi="69.931702">
      <path
         sodipodi:nodetypes="ccccccccccccccc"
         inkscape:connector-curvature="0"
         id="path817"
         d="m 92.415176,199.00967 c -0.427196,-6.96106 1.415391,-13.92212 4.252233,-20.88318 1.568206,7.10863 3.157106,14.20898 2.267857,22.30059 4.939164,-5.22908 10.350704,-9.80864 17.292414,-12.28423 -3.15512,5.53162 -6.19143,11.13113 -11.05581,15.68602 8.24265,-1.82572 13.63156,0.34379 19.46578,1.88988 -6.98062,2.19183 -13.60372,4.62199 -22.01712,5.85863 4.55704,5.11518 7.00533,10.86299 9.07143,16.72545 -6.0587,-4.10035 -12.174182,-8.13255 -17.008926,-13.70164 -1.002134,7.45904 -2.874934,14.2409 -6.142112,19.93824 -1.569546,-7.74851 -1.637562,-15.49702 -0.944941,-23.24553 -6.394361,1.92349 -12.232287,-0.6045 -18.142857,-2.55134 5.997952,-1.68687 11.940719,-3.41316 19.654761,-3.87426 -5.769184,-5.51341 -9.291925,-12.02523 -12.851188,-18.52083 6.354585,3.46751 12.062018,7.43837 16.158479,12.6622 z"
         style="fill:#ffffff;fill-opacity:1;fill-rule:evenodd;stroke:none;stroke-width:0.26458332px;stroke-linecap:butt;stroke-linejoin:miter;stroke-opacity:1" />
      <path
         sodipodi:nodetypes="ccccccccccccc"
         inkscape:connector-curvature="0"
         id="path819"
         d="m 94.210565,206.19122 c 0.144887,-1.41741 0.889991,-2.83482 1.511903,-4.25223 0.320515,1.4804 0.643603,2.96081 0.472472,4.44121 1.44061,-1.37045 3.299341,-2.46214 5.10268,-3.59077 -0.92989,1.52501 -1.686399,3.14908 -3.023812,4.44122 1.400831,-0.2926 3.082332,-0.16421 4.724702,-0.0945 -1.6526,0.81474 -3.241358,1.85292 -5.008185,2.26786 0.561177,1.16542 0.528327,2.33085 0.472472,3.49627 -1.718105,-1.26832 -2.37479,-2.86833 -3.118305,-4.44121 -0.626208,1.977 -1.654711,3.61875 -2.645833,5.29166 0.132044,-2.16085 0.355065,-4.29137 1.417412,-6.14211 -1.448909,0.27887 -2.897819,-0.42903 -4.346728,-0.85045 1.426671,-0.37706 2.778035,-1.01769 4.441222,-0.56695 z"
         style="fill:#ff7e00;fill-opacity:1;fill-rule:evenodd;stroke:none;stroke-width:0.26458332px;stroke-linecap:butt;stroke-linejoin:miter;stroke-opacity:1" />
    </g>
    <g
       style="display:inline"
       id="g1407"
       transform="translate(195.64129,200.45215)"
       inkscape:export-xdpi="69.931702"
       inkscape:export-ydpi="69.931702">
      <path
         sodipodi:nodetypes="ccccccccccccccccccccccccc"
         inkscape:connector-curvature="0"
         id="path848"
         d="m 90.714284,179.63839 c 0.608379,-8.33239 2.839786,-16.34018 13.418156,-22.67857 3.68054,6.20669 0.37826,14.74098 -1.70089,22.86756 6.04329,-6.64824 11.37686,-13.65135 23.24553,-17.3869 -0.61563,6.99006 -5.9488,12.21103 -10.39434,17.76487 7.86732,-5.79584 14.77162,-12.67507 26.45833,-14.1741 -0.33024,8.94035 -10.55708,14.58183 -16.25298,21.73363 7.23558,-4.41869 12.73051,-10.57803 22.67857,-12.28423 -2.21152,7.1356 -11.10201,13.31706 -20.22172,19.46578 7.30754,-2.39102 14.61508,-3.92013 21.92262,-1.32292 -6.54605,10.74187 -16.34242,9.78257 -25.22991,12.09524 10.6321,-0.15665 14.31512,7.79397 19.18229,14.36309 -9.72365,0.85116 -18.43129,-1.68439 -26.64732,-5.85863 7.44731,8.72594 9.97612,17.10055 10.39434,25.32441 -8.27826,-3.59745 -11.79536,-9.83999 -15.68601,-15.875 3.44058,9.87342 3.97377,18.65657 3.40179,27.02529 -9.08564,-7.09539 -16.569013,-14.67146 -15.686015,-24.75744 -3.847277,8.58501 -6.829534,17.42952 -15.497024,24.56846 -3.501192,-11.26432 -1.763186,-22.23756 -0.944941,-33.26191 -10.964295,3.53403 -22.045652,4.84389 -33.261903,3.59077 7.43121,-8.53245 17.140987,-14.33061 28.348215,-18.33184 -9.70142,-5.46171 -17.952502,-12.80887 -25.135417,-21.54464 8.945436,-0.0962 17.890873,0.55106 26.836309,3.21279 -5.319195,-10.94948 -3.396635,-19.48505 -1.322917,-27.97023 5.560182,7.53361 11.863687,14.93207 12.095237,23.43452 z"
         style="display:inline;fill:#ffffff;fill-opacity:1;fill-rule:evenodd;stroke:none;stroke-width:0.26458332px;stroke-linecap:butt;stroke-linejoin:miter;stroke-opacity:1" />
      <path
         sodipodi:nodetypes="ccccccccccccc"
         inkscape:connector-curvature="0"
         id="path852"
         d="m 98.935264,200.42708 c -3.235081,-7.50901 -0.785884,-11.83482 2.173366,-15.875 6.31908,6.01187 6.79777,12.51045 4.06324,19.27679 4.57451,-10.04622 9.57413,-12.65291 14.64658,-13.98512 -2.87596,6.03787 -0.47438,14.44153 -9.82738,17.57589 2.58284,0.27764 5.16567,0.23276 7.74851,1.70089 -4.42702,2.725 -8.51633,6.50069 -15.11905,2.45685 3.27652,4.10162 2.44591,8.51262 2.07887,12.85119 -4.745799,-5.19389 -8.867812,-10.51685 -6.425592,-17.19792 -4.575744,5.38571 -10.010143,3.32975 -15.308035,2.45685 3.521022,-2.50106 3.94454,-4.65569 12.756695,-7.74851 -6.737833,-2.59653 -6.910057,-7.81931 -8.976934,-12.28423 4.338113,3.24719 9.681655,5.23759 12.18973,10.77232 z"
         style="fill:#ff7e00;fill-opacity:1;fill-rule:evenodd;stroke:none;stroke-width:0.26458332px;stroke-linecap:butt;stroke-linejoin:miter;stroke-opacity:1" />
    </g>
    <g
       style="display:inline"
       id="g1424"
       transform="translate(316.71482,203.81898)"
       inkscape:export-xdpi="69.931702"
       inkscape:export-ydpi="69.931702">
      <path
         inkscape:connector-curvature="0"
         transform="scale(0.26458333)"
         id="path894"
         d="m 291.78516,573.23438 a 24.642857,24.642857 0 0 0 -24.64258,24.64257 24.642857,24.642857 0 0 0 3.57422,12.73633 50.357143,50.357143 0 0 0 -15.00196,35.83399 50.357143,50.357143 0 0 0 1.2461,10.84765 63.928571,67.857142 0 0 0 -7.31836,-0.49023 63.928571,67.857142 0 0 0 -63.92774,67.85742 63.928571,67.857142 0 0 0 12.61719,40.34961 54.999999,54.999999 0 0 0 -16.9043,39.65039 54.999999,54.999999 0 0 0 55,55 54.999999,54.999999 0 0 0 37.20704,-14.56641 139.64285,139.64285 0 0 0 17.09765,25.42188 47.857145,47.857145 0 0 0 -25.01758,42.00195 47.857145,47.857145 0 0 0 47.85743,47.85742 47.857145,47.857145 0 0 0 32.91015,-13.14843 86.785713,86.785713 0 0 0 53.875,18.86328 86.785713,86.785713 0 0 0 74.16602,-41.92188 64.285728,64.285728 0 0 0 41.90429,-60.22265 64.285728,64.285728 0 0 0 -0.25,-5.28516 50.714286,50.714286 0 0 0 32.39454,11.71484 50.714286,50.714286 0 0 0 50.71289,-50.71484 50.714286,50.714286 0 0 0 -30.33789,-46.4082 A 39.642857,39.642857 0 0 0 585,741.44922 a 39.642857,39.642857 0 0 0 -26.29297,-37.27539 53.214284,57.142852 0 0 0 7.7207,-29.51172 53.214284,57.142852 0 0 0 -50.07421,-56.97461 46.785711,46.785711 0 0 0 -45.28125,-35.16797 46.785711,46.785711 0 0 0 -41.17774,24.60352 52.142861,50.714271 0 0 0 -46.32226,-27.46094 52.142861,50.714271 0 0 0 -46.24219,27.37305 50.357143,50.357143 0 0 0 -20.92578,-9.85547 24.642857,24.642857 0 0 0 -24.61914,-23.94531 z m 304.28711,110 A 21.071428,21.071428 0 0 0 575,704.30469 a 21.071428,21.071428 0 0 0 21.07227,21.07226 21.071428,21.071428 0 0 0 21.07031,-21.07226 21.071428,21.071428 0 0 0 -21.07031,-21.07031 z m -57.5,204.28515 a 19.999999,19.999999 0 0 0 -20,20 19.999999,19.999999 0 0 0 20,20 19.999999,19.999999 0 0 0 20,-20 19.999999,19.999999 0 0 0 -20,-20 z"
         style="opacity:1;fill:#ff7e3b;fill-opacity:1;stroke:none;stroke-width:0.96755898;stroke-linecap:square;stroke-miterlimit:4;stroke-dasharray:none;stroke-opacity:1" />
      <path
         inkscape:connector-curvature="0"
         id="path929"
         transform="scale(0.26458333)"
         d="m 376.78516,608.94727 a 38.928569,38.928569 0 0 0 -36.37305,25.18554 38.57143,38.57143 0 0 0 -22.55469,-7.32812 38.57143,38.57143 0 0 0 -38.57226,38.57226 38.57143,38.57143 0 0 0 1.57031,10.8125 49.999998,49.999998 0 0 0 -8.71289,-0.8125 49.999998,49.999998 0 0 0 -50,50 49.999998,49.999998 0 0 0 13.36914,33.9668 39.285714,39.285714 0 0 0 -16.22656,31.74805 39.285714,39.285714 0 0 0 39.28711,39.28515 39.285714,39.285714 0 0 0 24.45703,-8.54297 27.737727,17.142857 0 0 0 20.65234,7.7461 115,115 0 0 0 18.04492,25.03125 49.285713,49.285713 0 0 0 -10.29883,30.05078 49.285713,49.285713 0 0 0 49.28711,49.28516 49.285713,49.285713 0 0 0 37.39649,-17.21289 48.333143,39.753686 0 0 0 28.07812,7.43554 48.333143,39.753686 0 0 0 48.33399,-39.7539 48.333143,39.753686 0 0 0 -3.59766,-14.98047 115,115 0 0 0 30.66406,-31.85743 41.428564,41.428564 0 0 0 21.98243,6.36915 A 41.428564,41.428564 0 0 0 565,802.51953 a 41.428564,41.428564 0 0 0 -16.41016,-32.95508 34.642855,34.642855 0 0 0 7.125,-20.97265 34.642855,34.642855 0 0 0 -24.28906,-33.05274 39.999999,39.999999 0 0 0 7.85938,-23.73437 39.999999,39.999999 0 0 0 -33.80078,-39.46485 39.248185,37.773238 0 0 0 -39.09376,-34.65234 39.248185,37.773238 0 0 0 -27.66992,11.01172 49.696756,30.714284 0 0 0 -8.31054,-0.46484 49.696756,30.714284 0 0 0 -18.78907,2.30468 38.928569,38.928569 0 0 0 -34.83593,-21.59179 z"
         style="opacity:1;fill:#ef3f10;fill-opacity:1;stroke:none;stroke-width:0.96755898;stroke-linecap:square;stroke-miterlimit:4;stroke-dasharray:none;stroke-opacity:1" />
      <circle
         r="10.016369"
         cy="184.3631"
         cx="88.257439"
         id="path974"
         style="opacity:1;fill:#ffd200;fill-opacity:1;stroke:none;stroke-width:0.25599998;stroke-linecap:square;stroke-miterlimit:4;stroke-dasharray:none;stroke-opacity:1" />
      <circle
         r="14.646577"
         cy="187.4814"
         cx="118.21205"
         id="path976"
         style="opacity:1;fill:#ffd200;fill-opacity:1;stroke:none;stroke-width:0.25599998;stroke-linecap:square;stroke-miterlimit:4;stroke-dasharray:none;stroke-opacity:1" />
      <circle
         r="12.284225"
         cy="207.04167"
         cx="130.96875"
         id="path978"
         style="opacity:1;fill:#ffd200;fill-opacity:1;stroke:none;stroke-width:0.25599998;stroke-linecap:square;stroke-miterlimit:4;stroke-dasharray:none;stroke-opacity:1" />
      <circle
         r="9.8273811"
         cy="228.39731"
         cx="108.47916"
         id="path980"
         style="opacity:1;fill:#ffd200;fill-opacity:1;stroke:none;stroke-width:0.25599998;stroke-linecap:square;stroke-miterlimit:4;stroke-dasharray:none;stroke-opacity:1" />
      <circle
         r="16.914434"
         cy="210.53793"
         cx="82.871284"
         id="path982"
         style="opacity:1;fill:#ffd200;fill-opacity:1;stroke:none;stroke-width:0.25599998;stroke-linecap:square;stroke-miterlimit:4;stroke-dasharray:none;stroke-opacity:1" />
      <circle
         r="7.4650292"
         cy="209.782"
         cx="108.38467"
         id="path984"
         style="opacity:1;fill:#ffd200;fill-opacity:1;stroke:none;stroke-width:0.25599998;stroke-linecap:square;stroke-miterlimit:4;stroke-dasharray:none;stroke-opacity:1" />
      <circle
         r="11.43378"
         cy="210.53793"
         cx="83.816216"
         id="path988"
         style="opacity:1;fill:#ffffff;fill-opacity:1;stroke:none;stroke-width:0.25599998;stroke-linecap:square;stroke-miterlimit:4;stroke-dasharray:none;stroke-opacity:1" />
      <circle
         r="6.3311014"
         cy="229.62575"
         cx="109.14062"
         id="path990"
         style="opacity:1;fill:#ffffff;fill-opacity:1;stroke:none;stroke-width:0.25599998;stroke-linecap:square;stroke-miterlimit:4;stroke-dasharray:none;stroke-opacity:1" />
      <circle
         r="8.6934528"
         cy="188.8988"
         cx="118.68452"
         id="path992"
         style="opacity:1;fill:#ffffff;fill-opacity:1;stroke:none;stroke-width:0.25599998;stroke-linecap:square;stroke-miterlimit:4;stroke-dasharray:none;stroke-opacity:1" />
      <circle
         r="5.953125"
         cy="199.57664"
         cx="124.82663"
         id="path994"
         style="opacity:1;fill:#ffffff;fill-opacity:1;stroke:none;stroke-width:0.25599998;stroke-linecap:square;stroke-miterlimit:4;stroke-dasharray:none;stroke-opacity:1" />
      <circle
         r="7.3705359"
         cy="208.1756"
         cx="132.48065"
         id="path996"
         style="opacity:1;fill:#ffffff;fill-opacity:1;stroke:none;stroke-width:0.25599998;stroke-linecap:square;stroke-miterlimit:4;stroke-dasharray:none;stroke-opacity:1" />
      <circle
         r="4.8191962"
         cy="209.40401"
         cx="108.57366"
         id="path998"
         style="opacity:1;fill:#ffffff;fill-opacity:1;stroke:none;stroke-width:0.25599998;stroke-linecap:square;stroke-miterlimit:4;stroke-dasharray:none;stroke-opacity:1" />
      <circle
         r="5.953125"
         cy="185.02455"
         cx="86.651039"
         id="path1000"
         style="opacity:1;fill:#ffffff;fill-opacity:1;stroke:none;stroke-width:0.25599998;stroke-linecap:square;stroke-miterlimit:4;stroke-dasharray:none;stroke-opacity:1" />
    </g>
    <g
       style="display:inline"
       id="g1449"
       transform="translate(70.177226,327.32358)"
       inkscape:export-xdpi="69.931702"
       inkscape:export-ydpi="69.931702">
      <path
         transform="scale(0.26458333)"
         inkscape:connector-curvature="0"
         id="path1003"
         d="m 375.71484,552.91797 a 28.571428,46.229542 0 0 0 -25.74804,26.32226 64.143489,39.642857 0 0 0 -11.22071,3.77735 38.928569,38.928569 0 0 0 -30.53125,-14.7832 38.928569,38.928569 0 0 0 -38.92968,38.92773 38.928569,38.928569 0 0 0 1.29492,9.86133 59.642854,59.642854 0 0 0 -48.28125,32.3164 36.785712,36.785712 0 0 0 -19.08399,-5.39257 36.785712,36.785712 0 0 0 -36.78711,36.78711 36.785712,36.785712 0 0 0 21.22657,33.28515 63.571429,63.571429 0 0 0 -10.51172,34.92969 63.571429,63.571429 0 0 0 3.97265,21.98633 52.5,52.5 0 0 0 -17.54296,39.08398 52.5,52.5 0 0 0 52.5,52.5 52.5,52.5 0 0 0 9.66406,-0.92969 63.928571,63.928571 0 0 0 -0.73633,9.14454 63.928571,63.928571 0 0 0 47.98047,61.82421 38.928569,38.928569 0 0 0 -0.12305,2.46094 38.928569,38.928569 0 0 0 38.92774,38.92969 38.928569,38.928569 0 0 0 25.94726,-9.9707 42.142855,42.142855 0 0 0 13.98828,6.46289 62.525608,62.525608 0 0 0 32.53125,9.2207 62.525608,62.525608 0 0 0 45.41797,-19.66406 39.999999,39.999999 0 0 0 26.04492,9.66406 39.999999,39.999999 0 0 0 40,-40 39.999999,39.999999 0 0 0 -0.0781,-2.16406 44.642858,44.642858 0 0 0 19.00586,4.30664 44.642858,44.642858 0 0 0 44.64258,-44.64258 44.642858,44.642858 0 0 0 -0.006,-0.13867 36.42857,36.42857 0 0 0 5.7207,0.49609 36.42857,36.42857 0 0 0 36.42773,-36.42773 36.42857,36.42857 0 0 0 -3.91992,-16.42969 53.928569,53.928569 0 0 0 13.91992,-36.07031 53.928569,53.928569 0 0 0 -12.69921,-34.67774 46.785711,46.785711 0 0 0 19.84375,-38.17968 46.785711,46.785711 0 0 0 -46.26563,-46.76172 42.142855,42.142855 0 0 0 0.55078,-6.45313 42.142855,42.142855 0 0 0 -42.14258,-42.14258 42.142855,42.142855 0 0 0 -5.89843,0.45899 A 41.785713,41.785713 0 0 0 525,627.16211 41.785713,41.785713 0 0 0 483.21484,585.37695 41.785713,41.785713 0 0 0 478.04297,585.75 37.142858,37.142858 0 0 0 445.71484,566.80469 37.142858,37.142858 0 0 0 414.14844,584.45898 64.143489,39.642857 0 0 0 401.61328,579.75 28.571428,46.229542 0 0 0 375.71484,552.91797 Z m -49.3789,88.67187 a 64.143489,39.642857 0 0 0 2.77734,1.91797 153.21303,153.21303 0 0 0 -2.67187,2.2793 59.642854,59.642854 0 0 0 -2.09961,-3.24609 38.928569,38.928569 0 0 0 1.99414,-0.95118 z"
         style="opacity:1;fill:#ef3f10;fill-opacity:1;stroke:none;stroke-width:0.96755898;stroke-linecap:square;stroke-miterlimit:4;stroke-dasharray:none;stroke-opacity:1" />
      <circle
         r="15.780505"
         cy="231.51562"
         cx="87.218002"
         id="path1050"
         style="opacity:1;fill:#ff7e3b;fill-opacity:1;stroke:none;stroke-width:0.25599998;stroke-linecap:square;stroke-miterlimit:4;stroke-dasharray:none;stroke-opacity:1" />
      <circle
         r="15.213541"
         cy="219.79836"
         cx="118.968"
         id="path1052"
         style="opacity:1;fill:#ff7e3b;fill-opacity:1;stroke:none;stroke-width:0.25599998;stroke-linecap:square;stroke-miterlimit:4;stroke-dasharray:none;stroke-opacity:1" />
      <circle
         r="12.945683"
         cy="178.78793"
         cx="116.70015"
         id="path1054"
         style="opacity:1;fill:#ff7e3b;fill-opacity:1;stroke:none;stroke-width:0.25599998;stroke-linecap:square;stroke-miterlimit:4;stroke-dasharray:none;stroke-opacity:1" />
      <circle
         r="13.418155"
         cy="190.97768"
         cx="75.40625"
         id="path1056"
         style="opacity:1;fill:#ff7e3b;fill-opacity:1;stroke:none;stroke-width:0.25599998;stroke-linecap:square;stroke-miterlimit:4;stroke-dasharray:none;stroke-opacity:1" />
      <circle
         r="6.8035712"
         cy="213.08928"
         cx="61.421127"
         id="path1058"
         style="opacity:1;fill:#ff7e3b;fill-opacity:1;stroke:none;stroke-width:0.25599998;stroke-linecap:square;stroke-miterlimit:4;stroke-dasharray:none;stroke-opacity:1" />
      <circle
         r="5.4806542"
         cy="219.89285"
         cx="65.767853"
         id="path1060"
         style="opacity:1;fill:#ff7e3b;fill-opacity:1;stroke:none;stroke-width:0.25599998;stroke-linecap:square;stroke-miterlimit:4;stroke-dasharray:none;stroke-opacity:1" />
      <circle
         r="7.5595236"
         cy="195.89137"
         cx="142.30803"
         id="path1062"
         style="opacity:1;fill:#ff7e3b;fill-opacity:1;stroke:none;stroke-width:0.25599998;stroke-linecap:square;stroke-miterlimit:4;stroke-dasharray:none;stroke-opacity:1" />
      <circle
         r="7.1815472"
         cy="207.60863"
         cx="146.0878"
         id="path1064"
         style="opacity:1;fill:#ff7e3b;fill-opacity:1;stroke:none;stroke-width:0.25599998;stroke-linecap:square;stroke-miterlimit:4;stroke-dasharray:none;stroke-opacity:1" />
      <circle
         r="7.1815472"
         cy="200.80505"
         cx="98.462791"
         id="path1066"
         style="opacity:1;fill:#ff7e3b;fill-opacity:1;stroke:none;stroke-width:0.25599998;stroke-linecap:square;stroke-miterlimit:4;stroke-dasharray:none;stroke-opacity:1" />
      <circle
         r="9.1659222"
         cy="175.00818"
         cx="105.73884"
         id="path1068"
         style="opacity:1;fill:#ff7e3b;fill-opacity:1;stroke:none;stroke-width:0.25599998;stroke-linecap:square;stroke-miterlimit:4;stroke-dasharray:none;stroke-opacity:1" />
      <circle
         r="9.5438995"
         cy="206.56918"
         cx="124.25967"
         id="path1070"
         style="opacity:1;fill:#ff7e3b;fill-opacity:1;stroke:none;stroke-width:0.25599998;stroke-linecap:square;stroke-miterlimit:4;stroke-dasharray:none;stroke-opacity:1" />
      <circle
         r="7.6540179"
         cy="190.12723"
         cx="73.610863"
         id="path1072"
         style="opacity:1;fill:#ffd200;fill-opacity:1;stroke:none;stroke-width:0.25599998;stroke-linecap:square;stroke-miterlimit:4;stroke-dasharray:none;stroke-opacity:1" />
      <circle
         r="10.394345"
         cy="231.42113"
         cx="87.690468"
         id="path1074"
         style="opacity:1;fill:#ffd200;fill-opacity:1;stroke:none;stroke-width:0.25599998;stroke-linecap:square;stroke-miterlimit:4;stroke-dasharray:none;stroke-opacity:1" />
      <circle
         r="3.96875"
         cy="202.31696"
         cx="98.273804"
         id="path1076"
         style="opacity:1;fill:#ffd200;fill-opacity:1;stroke:none;stroke-width:0.25599998;stroke-linecap:square;stroke-miterlimit:4;stroke-dasharray:none;stroke-opacity:1" />
      <circle
         r="5.2916665"
         cy="174.34673"
         cx="106.02232"
         id="path1078"
         style="opacity:1;fill:#ffd200;fill-opacity:1;stroke:none;stroke-width:0.25599998;stroke-linecap:square;stroke-miterlimit:4;stroke-dasharray:none;stroke-opacity:1" />
      <circle
         r="8.5044641"
         cy="180.77231"
         cx="115.09375"
         id="path1080"
         style="opacity:1;fill:#ffd200;fill-opacity:1;stroke:none;stroke-width:0.25599998;stroke-linecap:square;stroke-miterlimit:4;stroke-dasharray:none;stroke-opacity:1" />
      <circle
         r="10.866816"
         cy="220.55432"
         cx="120.10193"
         id="path1082"
         style="opacity:1;fill:#ffd200;fill-opacity:1;stroke:none;stroke-width:0.25599998;stroke-linecap:square;stroke-miterlimit:4;stroke-dasharray:none;stroke-opacity:1" />
      <circle
         r="6.1421127"
         cy="207.32515"
         cx="124.44866"
         id="path1084"
         style="opacity:1;fill:#ffd200;fill-opacity:1;stroke:none;stroke-width:0.25599998;stroke-linecap:square;stroke-miterlimit:4;stroke-dasharray:none;stroke-opacity:1" />
      <circle
         r="4.2522321"
         cy="195.79688"
         cx="142.40253"
         id="path1086"
         style="opacity:1;fill:#ffd200;fill-opacity:1;stroke:none;stroke-width:0.25599998;stroke-linecap:square;stroke-miterlimit:4;stroke-dasharray:none;stroke-opacity:1" />
      <circle
         r="4.0632439"
         cy="207.13615"
         cx="146.37128"
         id="path1088"
         style="opacity:1;fill:#ffd200;fill-opacity:1;stroke:none;stroke-width:0.25599998;stroke-linecap:square;stroke-miterlimit:4;stroke-dasharray:none;stroke-opacity:1" />
      <circle
         r="4.1577382"
         cy="214.4122"
         cx="61.043152"
         id="path1090"
         style="opacity:1;fill:#ffd200;fill-opacity:1;stroke:none;stroke-width:0.25599998;stroke-linecap:square;stroke-miterlimit:4;stroke-dasharray:none;stroke-opacity:1" />
      <circle
         r="3.6852679"
         cy="219.60938"
         cx="65.1064"
         id="path1092"
         style="opacity:1;fill:#ffd200;fill-opacity:1;stroke:none;stroke-width:0.25599998;stroke-linecap:square;stroke-miterlimit:4;stroke-dasharray:none;stroke-opacity:1" />
    </g>
    <g
       style="display:inline"
       id="g1475"
       transform="translate(194.03768,327.1379)"
       inkscape:export-xdpi="69.931702"
       inkscape:export-ydpi="69.931702">
      <path
         clip-path="none"
         mask="none"
         transform="scale(0.26458333)"
         style="display:inline;opacity:1;fill:#4e433c;fill-opacity:1;stroke:none;stroke-width:0.96755898;stroke-linecap:square;stroke-miterlimit:4;stroke-dasharray:none;stroke-opacity:1"
         d="m 309.46094,581.63867 a 34.345186,34.345186 0 0 0 -34.34375,34.34375 34.345186,34.345186 0 0 0 0.11719,2.69141 36.870568,36.870568 0 0 0 -13.75586,-2.69141 36.870568,36.870568 0 0 0 -36.86914,36.8711 36.870568,36.870568 0 0 0 2.88476,14.20703 25.253813,25.253813 0 0 0 -20.05859,24.68359 25.253813,25.253813 0 0 0 23.85156,25.18359 40.406097,40.406097 0 0 0 39.78906,33.40625 40.406097,40.406097 0 0 0 34.00391,-18.58203 26.769043,26.769043 0 0 0 6.55273,0.84961 26.769043,26.769043 0 0 0 26.76758,-26.76953 26.769043,26.769043 0 0 0 -15.75,-24.36914 35.355338,35.355338 0 0 0 7.01367,-21.0332 35.355338,35.355338 0 0 0 -3.22265,-14.64258 34.345186,34.345186 0 0 0 17.36523,-29.80469 34.345186,34.345186 0 0 0 -34.3457,-34.34375 z m 145.10156,2.82031 a 40.413152,40.413152 0 0 0 -40.41406,40.41407 40.413152,40.413152 0 0 0 29.2832,38.83398 21.718278,21.718278 0 0 0 -8.05664,16.87109 21.718278,21.718278 0 0 0 21.71875,21.71876 21.718278,21.718278 0 0 0 2.05859,-0.11719 25.253813,25.253813 0 0 0 -0.54296,5.16797 25.253813,25.253813 0 0 0 25.2539,25.2539 25.253813,25.253813 0 0 0 13.2207,-3.76172 38.890873,38.890873 0 0 0 29.71094,13.86328 38.890873,38.890873 0 0 0 38.89063,-38.89257 38.890873,38.890873 0 0 0 -0.10157,-1.97071 41.655586,41.655586 0 0 0 12.22266,-29.43945 41.655586,41.655586 0 0 0 -25.7793,-38.49414 48.995477,57.403395 0 0 0 -48.46875,-49.44727 48.995477,57.403395 0 0 0 -10.35156,1.36719 30.30765,34.674964 0 0 0 -8.33594,-1.36719 30.30765,34.674964 0 0 0 -13.57421,3.68164 40.413152,40.413152 0 0 0 -16.73438,-3.68164 z m -61.61328,115.81641 a 27.274118,27.274118 0 0 0 -27.27344,27.27539 27.274118,27.274118 0 0 0 24.60938,27.13867 18.687822,18.687822 0 0 0 -0.36524,3.66993 18.687822,18.687822 0 0 0 18.6875,18.6875 18.687822,18.687822 0 0 0 18.6875,-18.6875 18.687822,18.687822 0 0 0 -10.88476,-16.95899 27.274118,27.274118 0 0 0 3.81445,-13.84961 27.274118,27.274118 0 0 0 -27.27539,-27.27539 z m 148.99805,55.55859 a 23.738584,23.738584 0 0 0 -18.61915,9.05469 42.931483,42.931483 0 0 0 -21.7871,-6.02344 42.931483,42.931483 0 0 0 -42.93164,42.93165 42.931483,42.931483 0 0 0 23.41015,38.1875 32.324881,16.16244 0 0 0 -5.22656,8.7832 32.324881,16.16244 0 0 0 2.73828,6.46484 45.456861,45.456861 0 0 0 -23.95313,40.00196 45.456861,45.456861 0 0 0 45.45704,45.45703 45.456861,45.456861 0 0 0 45.45703,-45.45703 45.456861,45.456861 0 0 0 -1.79102,-12.5625 42.931483,42.931483 0 0 0 8.03516,-1.91016 28.284271,28.284271 0 0 0 21.03125,9.42383 28.284271,28.284271 0 0 0 28.2832,-28.28516 28.284271,28.284271 0 0 0 -20.60547,-27.19531 42.931483,42.931483 0 0 0 -27.50781,-34.67774 23.738584,23.738584 0 0 0 11.74805,-20.45507 23.738584,23.738584 0 0 0 -23.73828,-23.73829 z m -241.42774,28.28516 a 37.880723,37.880723 0 0 0 -35.14062,23.78711 28.171789,28.171789 0 0 0 -15.375,-4.5957 28.171789,28.171789 0 0 0 -27.42383,21.87695 40.658775,40.658775 0 0 0 -16.50977,32.6543 40.658775,40.658775 0 0 0 40.66016,40.6582 40.658775,40.658775 0 0 0 11.95117,-1.83984 30.304575,30.304575 0 0 0 4.74805,2.41796 31.819805,31.819805 0 0 0 -7.86133,20.90626 31.819805,31.819805 0 0 0 31.82031,31.82031 31.819805,31.819805 0 0 0 23.64063,-10.57617 33.933913,33.057331 0 0 0 26.96093,13.05078 33.933913,33.057331 0 0 0 33.9336,-33.05664 A 33.933913,33.057331 0 0 0 356.18164,893.36133 40.406097,40.406097 0 0 0 360.625,875.0332 40.406097,40.406097 0 0 0 335.05469,837.48828 37.880723,37.880723 0 0 0 338.40039,822 37.880723,37.880723 0 0 0 300.51953,784.11914 Z m 89.9043,17.17188 a 28.789347,28.789347 0 0 0 -28.78906,28.78906 28.789347,28.789347 0 0 0 20.36132,27.5 18.687822,18.687822 0 0 0 18.5293,16.4414 18.687822,18.687822 0 0 0 3.12109,-0.26562 23.233509,23.233509 0 0 0 18.59766,9.35742 23.233509,23.233509 0 0 0 23.23438,-23.23242 23.233509,23.233509 0 0 0 -23.23438,-23.23438 23.233509,23.233509 0 0 0 -3.9043,0.33204 28.789347,28.789347 0 0 0 0.875,-6.89844 28.789347,28.789347 0 0 0 -28.79101,-28.78906 z"
         id="path1180"
         inkscape:connector-curvature="0" />
      <path
         inkscape:connector-curvature="0"
         id="path909"
         transform="scale(0.26458333)"
         d="m 300.51953,784.11914 a 37.880723,37.880723 0 0 0 -35.14062,23.78711 28.171789,28.171789 0 0 0 -15.375,-4.5957 28.171789,28.171789 0 0 0 -13.5293,3.48242 40.911179,40.911179 0 0 0 9.0957,23.83984 19.464284,19.464284 0 0 0 -19.14258,19.45313 19.464284,19.464284 0 0 0 19.46485,19.46484 19.464284,19.464284 0 0 0 4.74609,-0.60742 30.916007,19.107144 0 0 0 26.63867,10.22656 30.178571,30.178571 0 0 0 -0.13476,2.70117 30.178571,30.178571 0 0 0 30.17969,30.17969 30.178571,30.178571 0 0 0 8.78906,-1.33789 19.107144,19.107144 0 0 0 -0.0391,0.80078 19.107144,19.107144 0 0 0 19.10546,19.10742 19.107144,19.107144 0 0 0 19.10743,-19.10742 19.107144,19.107144 0 0 0 -0.17578,-2.41211 25.178572,25.178572 0 0 0 12.16992,-6.04883 33.933913,33.057331 0 0 0 -10.09766,-9.6914 A 40.406096,40.406096 0 0 0 360.625,875.0332 40.406096,40.406096 0 0 0 335.05469,837.48828 37.880723,37.880723 0 0 0 338.40039,822 37.880723,37.880723 0 0 0 300.51953,784.11914 Z"
         clip-path="none"
         mask="none"
         style="display:inline;opacity:1;fill:#ef3f10;fill-opacity:1;stroke:none;stroke-width:0.96755898;stroke-linecap:square;stroke-miterlimit:4;stroke-dasharray:none;stroke-opacity:1" />
      <path
         inkscape:connector-curvature="0"
         id="path935"
         transform="scale(0.26458333)"
         d="m 501.54102,758.86523 a 42.931482,42.931482 0 0 0 -42.91211,42.35938 33.571429,33.571429 0 0 0 0.10351,0.30859 39.285714,39.285714 0 0 0 -0.11719,0.0859 42.931482,42.931482 0 0 0 -0.006,0.17774 42.931482,42.931482 0 0 0 23.41015,38.1875 32.324881,16.16244 0 0 0 -5.22656,8.7832 32.324881,16.16244 0 0 0 2.73828,6.46484 45.45686,45.45686 0 0 0 -23.95313,40.00196 45.45686,45.45686 0 0 0 7.8379,25.50195 33.75,33.75 0 0 0 9.61914,1.42578 33.75,33.75 0 0 0 12.85351,-2.57227 25.535716,25.535716 0 0 0 12.50391,3.28711 25.535716,25.535716 0 0 0 25.53515,-25.53515 25.535716,25.535716 0 0 0 -4.80859,-14.86328 23.454526,23.454526 0 0 0 9.78711,-18.61133 25.892856,25.892856 0 0 0 1.62891,0.082 25.892856,25.892856 0 0 0 19.58593,-8.97852 8.1249996,8.1249996 0 0 0 7.64649,5.40625 8.1249996,8.1249996 0 0 0 0.28906,-0.01 12.232142,12.232142 0 0 0 12.21094,11.61719 12.232142,12.232142 0 0 0 12.23242,-12.23243 12.232142,12.232142 0 0 0 -8.62305,-11.6875 7.6785719,7.6785719 0 0 0 -5.12695,-1.97265 7.6785719,7.6785719 0 0 0 -4.4082,1.40234 8.1249996,8.1249996 0 0 0 -6.57422,-3.36719 8.1249996,8.1249996 0 0 0 -2.16797,0.29493 25.892856,25.892856 0 0 0 0.82812,-6.36719 25.892856,25.892856 0 0 0 -14.18945,-23.06641 19.999999,19.999999 0 0 0 1.33399,-7.11133 19.999999,19.999999 0 0 0 -4.56641,-12.69726 12.142857,12.142857 0 0 0 0.99414,-4.80274 12.142857,12.142857 0 0 0 -12.14258,-12.14257 12.142857,12.142857 0 0 0 -5.72265,1.44335 33.571429,33.571429 0 0 0 -20.24805,-20.80664 42.931482,42.931482 0 0 0 -0.3457,-0.006 z"
         clip-path="none"
         mask="none"
         style="display:inline;opacity:1;fill:#ef3f10;fill-opacity:1;stroke:none;stroke-width:0.96755898;stroke-linecap:square;stroke-miterlimit:4;stroke-dasharray:none;stroke-opacity:1" />
      <path
         inkscape:connector-curvature="0"
         id="path955"
         transform="scale(0.26458333)"
         d="m 309.46094,581.63867 a 34.345186,34.345186 0 0 0 -34.34375,34.34375 34.345186,34.345186 0 0 0 0.11719,2.69141 36.870568,36.870568 0 0 0 -13.75586,-2.69141 36.870568,36.870568 0 0 0 -36.86914,36.8711 36.870568,36.870568 0 0 0 2.88476,14.20703 25.253813,25.253813 0 0 0 -20.05859,24.68359 25.253813,25.253813 0 0 0 23.85156,25.18359 40.406096,40.406096 0 0 0 5.76953,14.77539 66.468611,59.080413 0 0 0 1.55469,0.0488 66.468611,59.080413 0 0 0 66.46875,-59.08007 66.468611,59.080413 0 0 0 -4.13086,-20.3711 33.035712,32.499999 0 0 0 10.47851,-23.70898 33.035712,32.499999 0 0 0 -0.50976,-5.65625 29.107143,31.964286 0 0 0 21.93945,-30.95117 29.107143,31.964286 0 0 0 -0.0527,-1.1504 34.345186,34.345186 0 0 0 -23.34375,-9.19531 z m 145.10156,2.82031 a 40.413151,40.413151 0 0 0 -18.85156,4.69532 27.499999,31.071427 0 0 0 -2.13867,11.9375 27.499999,31.071427 0 0 0 27.5,31.07031 27.499999,31.071427 0 0 0 0.65429,-0.0254 51.428569,41.785712 0 0 0 3.6836,5.58984 24.821428,36.964287 0 0 0 -1.83789,13.90039 24.821428,36.964287 0 0 0 24.82031,36.96485 24.821428,36.964287 0 0 0 9.40039,-2.78321 62.32143,36.964287 0 0 0 7.25781,5.30469 29.642856,25.892856 0 0 0 -0.4082,4.08399 29.642856,25.892856 0 0 0 29.64258,25.89453 29.642856,25.892856 0 0 0 28.79492,-19.86914 62.32143,36.964287 0 0 0 3.59765,-0.5918 41.655585,41.655585 0 0 0 11.12891,-28.23047 41.655585,41.655585 0 0 0 -25.7793,-38.49414 48.995476,57.403394 0 0 0 -48.46875,-49.44727 48.995476,57.403394 0 0 0 -10.35156,1.36719 30.30765,34.674964 0 0 0 -8.33594,-1.36719 30.30765,34.674964 0 0 0 -13.57421,3.68164 40.413151,40.413151 0 0 0 -16.73438,-3.68164 z"
         clip-path="none"
         mask="none"
         style="display:inline;opacity:1;fill:#ef3f10;fill-opacity:1;stroke:none;stroke-width:0.96755898;stroke-linecap:square;stroke-miterlimit:4;stroke-dasharray:none;stroke-opacity:1" />
      <path
         inkscape:connector-curvature="0"
         id="path971"
         transform="scale(0.26458333)"
         d="m 392.94922,700.27539 a 27.274118,27.274118 0 0 0 -17.63477,6.47461 17.677669,19.950512 0 0 0 -0.043,1.35547 17.677669,19.950512 0 0 0 9.60938,17.72851 26.011428,19.697974 0 0 0 -0.0137,0.20118 26.011428,19.697974 0 0 0 22.2207,19.46289 21.213203,17.677669 0 0 0 -0.50195,3.76953 21.213203,17.677669 0 0 0 18.69336,17.5293 18.687822,18.687822 0 0 0 2.01562,-8.4375 18.687822,18.687822 0 0 0 -10.88476,-16.95899 27.274118,27.274118 0 0 0 3.81445,-13.84961 27.274118,27.274118 0 0 0 -27.27539,-27.27539 z m -2.52539,101.01563 a 28.789347,28.789347 0 0 0 -27.78516,21.28906 29.362764,25.672349 0 0 0 26.33789,14.39844 29.362764,25.672349 0 0 0 2.01953,-0.0625 20.960734,29.041967 0 0 0 19.7168,22.4121 20.960665,23.738584 0 0 0 19.35938,14.69336 20.960665,23.738584 0 0 0 13.92773,-6.02929 23.233509,23.233509 0 0 0 1.47852,-8.11133 23.233509,23.233509 0 0 0 -23.23438,-23.23438 23.233509,23.233509 0 0 0 -3.9043,0.33204 28.789347,28.789347 0 0 0 0.875,-6.89844 28.789347,28.789347 0 0 0 -28.79101,-28.78906 z"
         clip-path="none"
         mask="none"
         style="display:inline;opacity:1;fill:#ef3f10;fill-opacity:1;stroke:none;stroke-width:0.96755898;stroke-linecap:square;stroke-miterlimit:4;stroke-dasharray:none;stroke-opacity:1" />
      <path
         transform="scale(0.26458333)"
         inkscape:connector-curvature="0"
         id="path1159"
         d="m 454.5625,584.45898 a 40.413151,40.413151 0 0 0 -14.83594,2.85938 31.062192,25.001277 0 0 0 -1.32031,7.14453 31.062192,25.001277 0 0 0 31.0625,25 31.062192,25.001277 0 0 0 12.88867,-2.28711 24.748737,31.062192 0 0 0 -1.52539,10.6211 24.748737,31.062192 0 0 0 2.23047,12.79101 11.364216,17.172593 0 0 0 -3.74609,12.7168 11.364216,17.172593 0 0 0 11.36523,17.17187 11.364216,17.172593 0 0 0 9.91016,-8.78711 26.769043,26.263965 0 0 0 -0.0605,1.21094 26.769043,26.263965 0 0 0 13.66016,22.88281 19.950512,16.667516 0 0 0 -1.53907,6.41211 19.950512,16.667516 0 0 0 19.95118,16.66602 19.950512,16.667516 0 0 0 17.08007,-8.08789 21.970818,31.567267 0 0 0 7.66797,2.02734 21.970818,31.567267 0 0 0 11.5625,-4.77148 41.655585,41.655585 0 0 0 8.89258,-25.62891 41.655585,41.655585 0 0 0 -14.49805,-31.50195 21.970818,31.567267 0 0 0 -0.30468,-0.12891 37.501892,36.516756 0 0 0 0.0508,-0.0937 41.655585,41.655585 0 0 0 -11.02735,-6.76953 48.995476,57.403394 0 0 0 -48.46875,-49.44727 48.995476,57.403394 0 0 0 -10.35156,1.36719 30.30765,34.674964 0 0 0 -8.33594,-1.36719 30.30765,34.674964 0 0 0 -13.57421,3.68164 40.413151,40.413151 0 0 0 -16.73438,-3.68164 z m -164.31445,3.07032 a 34.345186,34.345186 0 0 0 -15.13086,28.45312 34.345186,34.345186 0 0 0 0.11719,2.69141 36.870568,36.870568 0 0 0 -13.75586,-2.69141 36.870568,36.870568 0 0 0 -36.86914,36.8711 36.870568,36.870568 0 0 0 2.88476,14.20703 25.253813,25.253813 0 0 0 -20.05859,24.68359 25.253813,25.253813 0 0 0 3.58203,12.87695 30.304575,18.435284 0 0 0 19.29687,4.24024 30.304575,18.435284 0 0 0 28.375,-12.02735 16.414978,22.223356 0 0 0 5.71875,1.42188 16.414978,22.223356 0 0 0 16.41407,-22.22266 16.414978,22.223356 0 0 0 -11.22852,-21.0664 33.840111,33.335032 0 0 0 4.66211,-16.81446 33.840111,33.335032 0 0 0 -0.0723,-2.05664 25.75889,27.779196 0 0 0 24.82227,-27.74414 25.75889,27.779196 0 0 0 -8.75781,-20.82226 z m 102.70117,112.74609 a 27.274118,27.274118 0 0 0 -3.28516,0.2207 9.8489866,7.5761432 0 0 0 -2.27148,4.83008 9.8489866,7.5761432 0 0 0 9.84961,7.57617 9.8489866,7.5761432 0 0 0 9.84961,-7.57617 9.8489866,7.5761432 0 0 0 -0.125,-1.13867 27.274118,27.274118 0 0 0 -14.01758,-3.91211 z m 13.75,10.60742 a 9.7101004,15.258928 0 0 0 -9.70899,15.25781 9.7101004,15.258928 0 0 0 9.70899,15.25977 9.7101004,15.258928 0 0 0 9.71094,-15.25977 9.7101004,15.258928 0 0 0 -9.71094,-15.25781 z m 15.15234,34.33399 a 3.2829957,6.0609148 0 0 0 -1.12304,4.55664 3.2829957,6.0609148 0 0 0 3.2832,6.06054 3.2829957,6.0609148 0 0 0 2.60156,-2.37109 18.687822,18.687822 0 0 0 -4.76172,-8.24609 z m 56.96094,20.71875 a 28.789347,30.557116 0 0 0 -0.89062,0.0469 42.931482,42.931482 0 0 0 -19.3125,35.81446 42.931482,42.931482 0 0 0 23.41015,38.1875 32.324881,16.16244 0 0 0 -5.22656,8.7832 32.324881,16.16244 0 0 0 2.73828,6.46484 45.45686,45.45686 0 0 0 -23.95313,40.00196 45.45686,45.45686 0 0 0 0.92383,9.10156 20.436614,18.924893 0 0 0 7.93555,1.50586 20.436614,18.924893 0 0 0 7.17969,-1.2168 19.192897,27.021579 0 0 0 14.77148,9.80273 19.192897,27.021579 0 0 0 19.19336,-27.02148 19.192897,27.021579 0 0 0 -2.75391,-13.88867 28.284271,26.769043 0 0 0 5.78321,-16.16211 28.284271,26.769043 0 0 0 -0.0195,-0.54297 28.536809,27.526656 0 0 0 0.77734,0.0371 28.536809,27.526656 0 0 0 28.53711,-27.52734 28.536809,27.526656 0 0 0 -28.53711,-27.52539 28.536809,27.526656 0 0 0 -2.24609,0.0957 28.789347,30.557116 0 0 0 0.47851,-5.40039 28.789347,30.557116 0 0 0 -28.78906,-30.55664 z m -178.29297,18.18359 a 37.880723,37.880723 0 0 0 -35.14062,23.78711 28.171789,28.171789 0 0 0 -12.41016,-4.40625 23.991124,28.536809 0 0 0 -3.46094,14.71094 23.991124,28.536809 0 0 0 23.99024,28.53711 23.991124,28.536809 0 0 0 5.85156,-0.88867 39.699891,35.175934 0 0 0 -2.56836,12.32617 39.699891,35.175934 0 0 0 39.70117,35.17578 39.699891,35.175934 0 0 0 5.84961,-0.41602 23.030449,17.2932 0 0 0 20.91602,10.10742 23.030449,17.2932 0 0 0 17.60351,-6.16992 33.933913,33.057331 0 0 0 -4.66992,-3.52148 A 40.406096,40.406096 0 0 0 360.625,875.0332 40.406096,40.406096 0 0 0 335.05469,837.48828 37.880723,37.880723 0 0 0 338.40039,822 37.880723,37.880723 0 0 0 300.51953,784.11914 Z m 89.9043,17.17188 a 28.789347,28.789347 0 0 0 -18.73633,6.94726 20.708127,16.414978 0 0 0 18.73633,9.4668 20.708127,16.414978 0 0 0 0.61719,-0.0176 14.108611,18.064955 0 0 0 -0.0449,1.16406 14.108611,18.064955 0 0 0 14.10938,18.06446 14.108611,18.064955 0 0 0 4.8457,-1.11524 14.142136,18.182744 0 0 0 -0.33398,3.87695 14.142136,18.182744 0 0 0 14.14258,18.18165 14.142136,18.182744 0 0 0 13.95312,-15.27735 23.233509,23.233509 0 0 0 -15.46875,-5.93555 23.233509,23.233509 0 0 0 -3.9043,0.33204 28.789347,28.789347 0 0 0 0.875,-6.89844 28.789347,28.789347 0 0 0 -28.79101,-28.78906 z"
         clip-path="none"
         mask="none"
         style="display:inline;opacity:1;fill:#f75e26;fill-opacity:1;stroke:none;stroke-width:0.96755898;stroke-linecap:square;stroke-miterlimit:4;stroke-dasharray:none;stroke-opacity:1" />
      <ellipse
         ry="3.6117351"
         rx="4.1662517"
         cy="181.66585"
         cx="61.395252"
         id="path1162"
         style="opacity:1;fill:#ff7e3b;fill-opacity:1;stroke:none;stroke-width:0.2000376;stroke-linecap:square;stroke-miterlimit:4;stroke-dasharray:none;stroke-opacity:1" />
      <ellipse
         ry="4.07586"
         rx="3.1404169"
         cy="178.46596"
         cx="66.55011"
         id="path1164"
         style="opacity:1;fill:#ff7e3b;fill-opacity:1;stroke:none;stroke-width:0.25599998;stroke-linecap:square;stroke-miterlimit:4;stroke-dasharray:none;stroke-opacity:1" />
      <ellipse
         ry="3.9422255"
         rx="2.706104"
         cy="172.31876"
         cx="66.783974"
         id="path1166"
         style="opacity:1;fill:#ff7e3b;fill-opacity:1;stroke:none;stroke-width:0.25599998;stroke-linecap:square;stroke-miterlimit:4;stroke-dasharray:none;stroke-opacity:1" />
      <ellipse
         ry="0.92131698"
         rx="1.0158111"
         cy="187.26878"
         cx="104.91201"
         id="path1168"
         style="opacity:1;fill:#ff7e3b;fill-opacity:1;stroke:none;stroke-width:0.25599998;stroke-linecap:square;stroke-miterlimit:4;stroke-dasharray:none;stroke-opacity:1" />
      <ellipse
         ry="2.8348215"
         rx="1.5119048"
         cy="192.15884"
         cx="107.86495"
         id="path1170"
         style="opacity:1;fill:#ff7e3b;fill-opacity:1;stroke:none;stroke-width:0.25599998;stroke-linecap:square;stroke-miterlimit:4;stroke-dasharray:none;stroke-opacity:1" />
      <ellipse
         ry="3.0735996"
         rx="4.6103992"
         cy="159.95755"
         cx="132.29842"
         id="path1172"
         style="opacity:1;fill:#ff7e3b;fill-opacity:1;stroke:none;stroke-width:0.25599998;stroke-linecap:square;stroke-miterlimit:4;stroke-dasharray:none;stroke-opacity:1" />
      <ellipse
         ry="7.2162771"
         rx="4.543582"
         cy="167.77518"
         cx="138.51242"
         id="path1174"
         style="opacity:1;fill:#ff7e3b;fill-opacity:1;stroke:none;stroke-width:0.25599998;stroke-linecap:square;stroke-miterlimit:4;stroke-dasharray:none;stroke-opacity:1" />
      <ellipse
         ry="5.4334078"
         rx="5.3389139"
         cy="177.51227"
         cx="144.15067"
         id="path1176"
         style="opacity:1;fill:#ff7e3b;fill-opacity:1;stroke:none;stroke-width:0.25599998;stroke-linecap:square;stroke-miterlimit:4;stroke-dasharray:none;stroke-opacity:1" />
      <ellipse
         ry="5.2975273"
         rx="3.2740517"
         cy="213.16313"
         cx="128.62346"
         id="path1178"
         style="opacity:1;fill:#ff7e3b;fill-opacity:1;stroke:none;stroke-width:0.25599998;stroke-linecap:square;stroke-miterlimit:4;stroke-dasharray:none;stroke-opacity:1" />
      <ellipse
         ry="4.8776689"
         rx="5.278573"
         cy="218.35594"
         cx="132.36523"
         id="path1181"
         style="opacity:1;fill:#ff7e3b;fill-opacity:1;stroke:none;stroke-width:0.25599998;stroke-linecap:square;stroke-miterlimit:4;stroke-dasharray:none;stroke-opacity:1" />
      <ellipse
         ry="2.4095981"
         rx="1.7953868"
         cy="226.36571"
         cx="130.40178"
         id="path1183"
         style="opacity:1;fill:#ff7e3b;fill-opacity:1;stroke:none;stroke-width:0.25599998;stroke-linecap:square;stroke-miterlimit:4;stroke-dasharray:none;stroke-opacity:1" />
      <ellipse
         ry="5.0554318"
         rx="3.0710564"
         cy="234.68117"
         cx="129.88206"
         id="path1185"
         style="opacity:1;fill:#ff7e3b;fill-opacity:1;stroke:none;stroke-width:0.25599998;stroke-linecap:square;stroke-miterlimit:4;stroke-dasharray:none;stroke-opacity:1" />
      <ellipse
         ry="2.0051773"
         rx="1.1251073"
         cy="214.01341"
         cx="104.42474"
         id="path1187"
         style="opacity:1;fill:#ff7e3b;fill-opacity:1;stroke:none;stroke-width:0.25599998;stroke-linecap:square;stroke-miterlimit:4;stroke-dasharray:none;stroke-opacity:1" />
      <ellipse
         ry="2.3962359"
         rx="2.5016592"
         cy="217.98676"
         cx="106.81504"
         id="path1189"
         style="opacity:1;fill:#ff7e3b;fill-opacity:1;stroke:none;stroke-width:0.25599998;stroke-linecap:square;stroke-miterlimit:4;stroke-dasharray:none;stroke-opacity:1" />
      <ellipse
         ry="1.8669797"
         rx="1.3063078"
         cy="223.31754"
         cx="111.99206"
         id="path1191"
         style="opacity:1;fill:#ff7e3b;fill-opacity:1;stroke:none;stroke-width:0.25599998;stroke-linecap:square;stroke-miterlimit:4;stroke-dasharray:none;stroke-opacity:1" />
      <ellipse
         ry="5.5279016"
         rx="5.2916665"
         cy="216.6328"
         cx="80.414429"
         id="path1193"
         style="opacity:1;fill:#ff7e3b;fill-opacity:1;stroke:none;stroke-width:0.25599998;stroke-linecap:square;stroke-miterlimit:4;stroke-dasharray:none;stroke-opacity:1" />
      <ellipse
         ry="6.2366071"
         rx="4.7247024"
         cy="224.14508"
         cx="83.438248"
         id="path1195"
         style="opacity:1;fill:#ff7e3b;fill-opacity:1;stroke:none;stroke-width:0.25599998;stroke-linecap:square;stroke-miterlimit:4;stroke-dasharray:none;stroke-opacity:1" />
      <ellipse
         ry="3.6380208"
         rx="4.3467264"
         cy="231.75186"
         cx="88.068451"
         id="path1197"
         style="opacity:1;fill:#ff7e3b;fill-opacity:1;stroke:none;stroke-width:0.25599998;stroke-linecap:square;stroke-miterlimit:4;stroke-dasharray:none;stroke-opacity:1" />
    </g>
    <g
       style="display:inline"
       id="g1540"
       transform="translate(313.77443,332.4833)"
       inkscape:export-xdpi="69.931702"
       inkscape:export-ydpi="69.931702">
      <ellipse
         ry="9.0714283"
         rx="8.7879467"
         cy="160.92856"
         cx="73.79985"
         id="path1200"
         style="opacity:1;fill:#4e433c;fill-opacity:1;stroke:none;stroke-width:0.25599998;stroke-linecap:square;stroke-miterlimit:4;stroke-dasharray:none;stroke-opacity:1" />
      <ellipse
         ry="7.2760415"
         rx="6.7090774"
         cy="170.28348"
         cx="68.886162"
         id="path1202"
         style="opacity:1;fill:#4e433c;fill-opacity:1;stroke:none;stroke-width:0.25599998;stroke-linecap:square;stroke-miterlimit:4;stroke-dasharray:none;stroke-opacity:1" />
      <ellipse
         ry="6.9925594"
         rx="7.2760415"
         cy="179.26041"
         cx="66.240326"
         id="path1204"
         style="opacity:1;fill:#4e433c;fill-opacity:1;stroke:none;stroke-width:0.25599998;stroke-linecap:square;stroke-miterlimit:4;stroke-dasharray:none;stroke-opacity:1" />
      <ellipse
         ry="4.9406223"
         rx="6.5779676"
         cy="159.57872"
         cx="126.84763"
         id="path1206"
         style="opacity:1;fill:#4e433c;fill-opacity:1;stroke:none;stroke-width:0.25599998;stroke-linecap:square;stroke-miterlimit:4;stroke-dasharray:none;stroke-opacity:1" />
      <ellipse
         ry="8.2209816"
         rx="6.0476193"
         cy="166.50372"
         cx="133.4256"
         id="path1208"
         style="opacity:1;fill:#4e433c;fill-opacity:1;stroke:none;stroke-width:0.25599998;stroke-linecap:square;stroke-miterlimit:4;stroke-dasharray:none;stroke-opacity:1" />
      <ellipse
         ry="8.3679438"
         rx="6.4782362"
         cy="177.04503"
         cx="138.95889"
         id="path1210"
         style="opacity:1;fill:#4e433c;fill-opacity:1;stroke:none;stroke-width:0.25599998;stroke-linecap:square;stroke-miterlimit:4;stroke-dasharray:none;stroke-opacity:1" />
      <ellipse
         ry="5.3590837"
         rx="4.5810471"
         cy="179.32784"
         cx="145.94414"
         id="path1212"
         style="opacity:1;fill:#4e433c;fill-opacity:1;stroke:none;stroke-width:0.25599998;stroke-linecap:square;stroke-miterlimit:4;stroke-dasharray:none;stroke-opacity:1" />
      <ellipse
         ry="8.8926916"
         rx="8.4438763"
         cy="209.67725"
         cx="141.2347"
         id="path1218"
         style="opacity:1;fill:#4e433c;fill-opacity:1;stroke:none;stroke-width:0.25599998;stroke-linecap:square;stroke-miterlimit:4;stroke-dasharray:none;stroke-opacity:1" />
      <ellipse
         ry="11.90625"
         rx="8.6934528"
         cy="225.37352"
         cx="147.5997"
         id="path1220"
         style="opacity:1;fill:#4e433c;fill-opacity:1;stroke:none;stroke-width:0.25599998;stroke-linecap:square;stroke-miterlimit:4;stroke-dasharray:none;stroke-opacity:1" />
      <ellipse
         ry="8.372448"
         rx="9.1697626"
         cy="239.49065"
         cx="142.2097"
         id="path1222"
         style="opacity:1;fill:#4e433c;fill-opacity:1;stroke:none;stroke-width:0.25599998;stroke-linecap:square;stroke-miterlimit:4;stroke-dasharray:none;stroke-opacity:1" />
      <ellipse
         ry="5.4112983"
         rx="3.538286"
         cy="190.75089"
         cx="106.6369"
         id="path1224"
         style="opacity:1;fill:#4e433c;fill-opacity:1;stroke:none;stroke-width:0.25599998;stroke-linecap:square;stroke-miterlimit:4;stroke-dasharray:none;stroke-opacity:1" />
      <ellipse
         ry="6.1421127"
         rx="4.6302085"
         cy="199.95461"
         cx="110.65253"
         id="path1226"
         style="opacity:1;fill:#4e433c;fill-opacity:1;stroke:none;stroke-width:0.25599998;stroke-linecap:square;stroke-miterlimit:4;stroke-dasharray:none;stroke-opacity:1" />
      <ellipse
         ry="5.1681604"
         rx="5.6720052"
         cy="218.63213"
         cx="68.239243"
         id="path1228"
         style="opacity:1;fill:#4e433c;fill-opacity:1;stroke:none;stroke-width:0.25599998;stroke-linecap:square;stroke-miterlimit:4;stroke-dasharray:none;stroke-opacity:1" />
      <ellipse
         ry="7.5595236"
         rx="5.1026788"
         cy="227.83035"
         cx="75.028275"
         id="path1230"
         style="opacity:1;fill:#4e433c;fill-opacity:1;stroke:none;stroke-width:0.25599998;stroke-linecap:square;stroke-miterlimit:4;stroke-dasharray:none;stroke-opacity:1" />
      <ellipse
         ry="8.2098351"
         rx="4.4651031"
         cy="240.82355"
         cx="77.828064"
         id="path1232"
         style="opacity:1;fill:#4e433c;fill-opacity:1;stroke:none;stroke-width:0.25599998;stroke-linecap:square;stroke-miterlimit:4;stroke-dasharray:none;stroke-opacity:1" />
      <ellipse
         ry="11.872387"
         rx="5.7831841"
         cy="231.64398"
         cx="70.756996"
         id="path1234"
         style="opacity:1;fill:#4e433c;fill-opacity:1;stroke:none;stroke-width:0.25599998;stroke-linecap:square;stroke-miterlimit:4;stroke-dasharray:none;stroke-opacity:1" />
      <ellipse
         ry="9.7751131"
         rx="5.4040627"
         cy="228.10597"
         cx="64.295044"
         id="path1236"
         style="opacity:1;fill:#4e433c;fill-opacity:1;stroke:none;stroke-width:0.25599998;stroke-linecap:square;stroke-miterlimit:4;stroke-dasharray:none;stroke-opacity:1" />
      <ellipse
         ry="6.75876"
         rx="5.162734"
         cy="220.60513"
         cx="103.50505"
         id="path1238"
         style="opacity:1;fill:#4e433c;fill-opacity:1;stroke:none;stroke-width:0.25599998;stroke-linecap:square;stroke-miterlimit:4;stroke-dasharray:none;stroke-opacity:1" />
      <ellipse
         ry="2.9649341"
         rx="2.6083684"
         cy="224.39896"
         cx="106.05942"
         id="path1242"
         style="opacity:1;fill:#4e433c;fill-opacity:1;stroke:none;stroke-width:0.25599998;stroke-linecap:square;stroke-miterlimit:4;stroke-dasharray:none;stroke-opacity:1" />
      <ellipse
         ry="2.5301678"
         rx="2.7017901"
         cy="194.64177"
         cx="108.9131"
         id="path1244"
         style="opacity:1;fill:#4e433c;fill-opacity:1;stroke:none;stroke-width:0.25599998;stroke-linecap:square;stroke-miterlimit:4;stroke-dasharray:none;stroke-opacity:1" />
      <ellipse
         ry="3.9422255"
         rx="2.80633"
         cy="160.62572"
         cx="73.23185"
         id="path1246"
         style="opacity:1;fill:#ef3f10;fill-opacity:1;stroke:none;stroke-width:0.25599998;stroke-linecap:square;stroke-miterlimit:4;stroke-dasharray:none;stroke-opacity:1" />
      <ellipse
         ry="3.8462698"
         rx="2.9357059"
         cy="167.53705"
         cx="69.886719"
         id="path1248"
         style="opacity:1;fill:#ef3f10;fill-opacity:1;stroke:none;stroke-width:0.25599998;stroke-linecap:square;stroke-miterlimit:4;stroke-dasharray:none;stroke-opacity:1" />
      <ellipse
         ry="1.9085656"
         rx="2.2007148"
         cy="165.59935"
         cx="70.621712"
         id="path1250"
         style="opacity:1;fill:#ef3f10;fill-opacity:1;stroke:none;stroke-width:0.25599998;stroke-linecap:square;stroke-miterlimit:4;stroke-dasharray:none;stroke-opacity:1" />
      <ellipse
         ry="4.2218757"
         rx="2.3505669"
         cy="180.14877"
         cx="66.094353"
         id="path1252"
         style="opacity:1;fill:#ef3f10;fill-opacity:1;stroke:none;stroke-width:0.25599998;stroke-linecap:square;stroke-miterlimit:4;stroke-dasharray:none;stroke-opacity:1" />
      <ellipse
         ry="4.2763124"
         rx="2.3386083"
         cy="174.18965"
         cx="67.686005"
         id="path1254"
         style="opacity:1;fill:#ef3f10;fill-opacity:1;stroke:none;stroke-width:0.25599998;stroke-linecap:square;stroke-miterlimit:4;stroke-dasharray:none;stroke-opacity:1" />
      <ellipse
         ry="3.8754082"
         rx="2.9399648"
         cy="166.83974"
         cx="133.63477"
         id="path1258"
         style="opacity:1;fill:#ef3f10;fill-opacity:1;stroke:none;stroke-width:0.25599998;stroke-linecap:square;stroke-miterlimit:4;stroke-dasharray:none;stroke-opacity:1" />
      <ellipse
         ry="2.9399648"
         rx="2.80633"
         cy="170.58151"
         cx="134.97112"
         id="path1260"
         style="opacity:1;fill:#ef3f10;fill-opacity:1;stroke:none;stroke-width:0.25599998;stroke-linecap:square;stroke-miterlimit:4;stroke-dasharray:none;stroke-opacity:1" />
      <ellipse
         ry="4.2094951"
         rx="3.6749561"
         cy="175.86008"
         cx="138.64607"
         id="path1262"
         style="opacity:1;fill:#ef3f10;fill-opacity:1;stroke:none;stroke-width:0.25599998;stroke-linecap:square;stroke-miterlimit:4;stroke-dasharray:none;stroke-opacity:1" />
      <ellipse
         ry="2.3386083"
         rx="2.0713389"
         cy="163.16478"
         cx="69.957802"
         id="path1264"
         style="opacity:1;fill:#ef3f10;fill-opacity:1;stroke:none;stroke-width:0.25599998;stroke-linecap:square;stroke-miterlimit:4;stroke-dasharray:none;stroke-opacity:1" />
      <ellipse
         ry="1.7419537"
         rx="3.999404"
         cy="170.04227"
         cx="68.544991"
         id="path1266"
         style="opacity:1;fill:#ef3f10;fill-opacity:1;stroke:none;stroke-width:0.25599998;stroke-linecap:square;stroke-miterlimit:4;stroke-dasharray:none;stroke-opacity:1" />
      <ellipse
         ry="4.6712914"
         rx="2.6595268"
         cy="210.96094"
         cx="140.80763"
         id="path1268"
         style="opacity:1;fill:#ef3f10;fill-opacity:1;stroke:none;stroke-width:0.25599998;stroke-linecap:square;stroke-miterlimit:4;stroke-dasharray:none;stroke-opacity:1" />
      <ellipse
         ry="4.9444861"
         rx="4.543582"
         cy="224.7036"
         cx="147.39914"
         id="path1272"
         style="opacity:1;fill:#ef3f10;fill-opacity:1;stroke:none;stroke-width:0.25599998;stroke-linecap:square;stroke-miterlimit:4;stroke-dasharray:none;stroke-opacity:1" />
      <ellipse
         ry="3.7822778"
         rx="3.8733509"
         cy="227.20215"
         cx="150.8757"
         id="path1278"
         style="opacity:1;fill:#ef3f10;fill-opacity:1;stroke:none;stroke-width:0.25599998;stroke-linecap:square;stroke-miterlimit:4;stroke-dasharray:none;stroke-opacity:1" />
      <ellipse
         ry="5.0953169"
         rx="4.6235523"
         cy="238.58441"
         cx="141.97377"
         id="path1280"
         style="opacity:1;fill:#ef3f10;fill-opacity:1;stroke:none;stroke-width:0.25599998;stroke-linecap:square;stroke-miterlimit:4;stroke-dasharray:none;stroke-opacity:1" />
      <ellipse
         ry="4.8236818"
         rx="5.6782155"
         cy="227.79002"
         cx="67.684746"
         id="path1282"
         style="opacity:1;fill:#ef3f10;fill-opacity:1;stroke:none;stroke-width:0.25599998;stroke-linecap:square;stroke-miterlimit:4;stroke-dasharray:none;stroke-opacity:1" />
      <ellipse
         ry="4.4767647"
         rx="4.8108511"
         cy="232.78848"
         cx="71.761864"
         id="path1284"
         style="opacity:1;fill:#ef3f10;fill-opacity:1;stroke:none;stroke-width:0.25599998;stroke-linecap:square;stroke-miterlimit:4;stroke-dasharray:none;stroke-opacity:1" />
      <ellipse
         ry="3.0735996"
         rx="2.80633"
         cy="237.53253"
         cx="75.770905"
         id="path1286"
         style="opacity:1;fill:#ef3f10;fill-opacity:1;stroke:none;stroke-width:0.25599998;stroke-linecap:square;stroke-miterlimit:4;stroke-dasharray:none;stroke-opacity:1" />
      <ellipse
         ry="2.6726952"
         rx="2.2049735"
         cy="220.5609"
         cx="103.09922"
         id="path1288"
         style="opacity:1;fill:#ef3f10;fill-opacity:1;stroke:none;stroke-width:0.25599998;stroke-linecap:square;stroke-miterlimit:4;stroke-dasharray:none;stroke-opacity:1" />
      <ellipse
         ry="2.2049735"
         rx="1.403165"
         cy="200.44887"
         cx="110.18186"
         id="path1290"
         style="opacity:1;fill:#ef3f10;fill-opacity:1;stroke:none;stroke-width:0.25599998;stroke-linecap:square;stroke-miterlimit:4;stroke-dasharray:none;stroke-opacity:1" />
      <ellipse
         ry="1.8708867"
         rx="1.2695302"
         cy="191.82944"
         cx="106.70736"
         id="path1292"
         style="opacity:1;fill:#ef3f10;fill-opacity:1;stroke:none;stroke-width:0.25599998;stroke-linecap:square;stroke-miterlimit:4;stroke-dasharray:none;stroke-opacity:1" />
      <ellipse
         ry="2.0045214"
         rx="1.9377041"
         cy="160.02437"
         cx="127.28711"
         id="path1294"
         style="opacity:1;fill:#ef3f10;fill-opacity:1;stroke:none;stroke-width:0.25599998;stroke-linecap:square;stroke-miterlimit:4;stroke-dasharray:none;stroke-opacity:1" />
      <ellipse
         ry="3.1404169"
         rx="2.3386083"
         cy="213.67871"
         cx="143.7242"
         id="path1296"
         style="opacity:1;fill:#ef3f10;fill-opacity:1;stroke:none;stroke-width:0.25599998;stroke-linecap:square;stroke-miterlimit:4;stroke-dasharray:none;stroke-opacity:1" />
      <ellipse
         ry="3.8085907"
         rx="2.7395127"
         cy="218.22231"
         cx="146.39688"
         id="path1298"
         style="opacity:1;fill:#ef3f10;fill-opacity:1;stroke:none;stroke-width:0.25599998;stroke-linecap:square;stroke-miterlimit:4;stroke-dasharray:none;stroke-opacity:1" />
      <ellipse
         ry="2.4345644"
         rx="0.53028017"
         cy="161.25621"
         cx="72.292145"
         id="path1300"
         style="opacity:1;fill:#f75e26;fill-opacity:1;stroke:none;stroke-width:0.25599998;stroke-linecap:square;stroke-miterlimit:4;stroke-dasharray:none;stroke-opacity:1" />
      <ellipse
         ry="1.403165"
         rx="1.4198694"
         cy="167.17383"
         cx="69.67382"
         id="path1302"
         style="opacity:1;fill:#f75e26;fill-opacity:1;stroke:none;stroke-width:0.25599998;stroke-linecap:square;stroke-miterlimit:4;stroke-dasharray:none;stroke-opacity:1" />
      <ellipse
         ry="1.2862346"
         rx="1.2027128"
         cy="174.23976"
         cx="67.652603"
         id="path1304"
         style="opacity:1;fill:#f75e26;fill-opacity:1;stroke:none;stroke-width:0.25599998;stroke-linecap:square;stroke-miterlimit:4;stroke-dasharray:none;stroke-opacity:1" />
      <ellipse
         ry="1.503391"
         rx="1.2194172"
         cy="180.23662"
         cx="66.1325"
         id="path1306"
         style="opacity:1;fill:#f75e26;fill-opacity:1;stroke:none;stroke-width:0.25599998;stroke-linecap:square;stroke-miterlimit:4;stroke-dasharray:none;stroke-opacity:1" />
      <ellipse
         ry="0.8976934"
         rx="0.83863467"
         cy="160.3616"
         cx="127.53153"
         id="path1308"
         style="opacity:1;fill:#f75e26;fill-opacity:1;stroke:none;stroke-width:0.25599998;stroke-linecap:square;stroke-miterlimit:4;stroke-dasharray:none;stroke-opacity:1" />
      <ellipse
         ry="1.7372519"
         rx="1.3697563"
         cy="166.93997"
         cx="134.00226"
         id="path1310"
         style="opacity:1;fill:#f75e26;fill-opacity:1;stroke:none;stroke-width:0.25599998;stroke-linecap:square;stroke-miterlimit:4;stroke-dasharray:none;stroke-opacity:1" />
      <ellipse
         ry="1.887591"
         rx="1.5535041"
         cy="170.06367"
         cx="134.85417"
         id="path1312"
         style="opacity:1;fill:#f75e26;fill-opacity:1;stroke:none;stroke-width:0.25599998;stroke-linecap:square;stroke-miterlimit:4;stroke-dasharray:none;stroke-opacity:1" />
      <ellipse
         ry="2.2550867"
         rx="1.7205476"
         cy="176.17747"
         cx="138.69618"
         id="path1314"
         style="opacity:1;fill:#f75e26;fill-opacity:1;stroke:none;stroke-width:0.25599998;stroke-linecap:square;stroke-miterlimit:4;stroke-dasharray:none;stroke-opacity:1" />
      <ellipse
         ry="2.4568453"
         rx="2.952939"
         cy="228.49182"
         cx="67.917603"
         id="path1316"
         style="opacity:1;fill:#f75e26;fill-opacity:1;stroke:none;stroke-width:0.25599998;stroke-linecap:square;stroke-miterlimit:4;stroke-dasharray:none;stroke-opacity:1" />
      <ellipse
         ry="1.7953868"
         rx="2.1969867"
         cy="233.02753"
         cx="71.839096"
         id="path1318"
         style="opacity:1;fill:#f75e26;fill-opacity:1;stroke:none;stroke-width:0.25599998;stroke-linecap:square;stroke-miterlimit:4;stroke-dasharray:none;stroke-opacity:1" />
      <ellipse
         ry="1.4646577"
         rx="1.2520461"
         cy="237.94122"
         cx="75.760605"
         id="path1320"
         style="opacity:1;fill:#f75e26;fill-opacity:1;stroke:none;stroke-width:0.25599998;stroke-linecap:square;stroke-miterlimit:4;stroke-dasharray:none;stroke-opacity:1" />
      <ellipse
         ry="1.4174107"
         rx="1.1103051"
         cy="220.41258"
         cx="102.97489"
         id="path1322"
         style="opacity:1;fill:#f75e26;fill-opacity:1;stroke:none;stroke-width:0.25599998;stroke-linecap:square;stroke-miterlimit:4;stroke-dasharray:none;stroke-opacity:1" />
      <ellipse
         ry="0.91873902"
         rx="0.70158249"
         cy="200.59921"
         cx="110.21527"
         id="path1324"
         style="opacity:1;fill:#f75e26;fill-opacity:1;stroke:none;stroke-width:0.25599998;stroke-linecap:square;stroke-miterlimit:4;stroke-dasharray:none;stroke-opacity:1" />
      <ellipse
         ry="0.80319941"
         rx="0.64964658"
         cy="191.73363"
         cx="106.53023"
         id="path1326"
         style="opacity:1;fill:#f75e26;fill-opacity:1;stroke:none;stroke-width:0.25599998;stroke-linecap:square;stroke-miterlimit:4;stroke-dasharray:none;stroke-opacity:1" />
      <ellipse
         ry="2.3623512"
         rx="1.3465402"
         cy="211.43564"
         cx="141.00874"
         id="path1328"
         style="opacity:1;fill:#f75e26;fill-opacity:1;stroke:none;stroke-width:0.25599998;stroke-linecap:square;stroke-miterlimit:4;stroke-dasharray:none;stroke-opacity:1" />
      <ellipse
         ry="1.2284226"
         rx="0.94494045"
         cy="213.77437"
         cx="143.70183"
         id="path1330"
         style="opacity:1;fill:#f75e26;fill-opacity:1;stroke:none;stroke-width:0.25599998;stroke-linecap:square;stroke-miterlimit:4;stroke-dasharray:none;stroke-opacity:1" />
      <ellipse
         ry="1.5367998"
         rx="0.96885204"
         cy="218.12209"
         cx="146.29666"
         id="path1332"
         style="opacity:1;fill:#f75e26;fill-opacity:1;stroke:none;stroke-width:0.25599998;stroke-linecap:square;stroke-miterlimit:4;stroke-dasharray:none;stroke-opacity:1" />
      <ellipse
         ry="2.7729213"
         rx="2.1715648"
         cy="224.90404"
         cx="147.83345"
         id="path1334"
         style="opacity:1;fill:#f75e26;fill-opacity:1;stroke:none;stroke-width:0.25599998;stroke-linecap:square;stroke-miterlimit:4;stroke-dasharray:none;stroke-opacity:1" />
      <ellipse
         ry="1.6203215"
         rx="1.4532781"
         cy="227.15913"
         cx="151.55853"
         id="path1336"
         style="opacity:1;fill:#f75e26;fill-opacity:1;stroke:none;stroke-width:0.25599998;stroke-linecap:square;stroke-miterlimit:4;stroke-dasharray:none;stroke-opacity:1" />
      <ellipse
         ry="2.2550867"
         rx="2.1214519"
         cy="238.61832"
         cx="142.00363"
         id="path1338"
         style="opacity:1;fill:#f75e26;fill-opacity:1;stroke:none;stroke-width:0.25599998;stroke-linecap:square;stroke-miterlimit:4;stroke-dasharray:none;stroke-opacity:1" />
    </g>
    <g
       style="display:inline"
       id="g1550"
       transform="translate(24.588797,-102.09696)"
       inkscape:export-xdpi="69.931702"
       inkscape:export-ydpi="69.931702">
      <path
         inkscape:connector-curvature="0"
         id="path1341"
         d="m 116.73132,710.79456 a 4.7440341,4.0090428 0 0 0 -4.7439,4.00906 4.7440341,4.0090428 0 0 0 4.7439,4.00906 4.7440341,4.0090428 0 0 0 4.7439,-4.00906 4.7440341,4.0090428 0 0 0 -4.7439,-4.00906 z m 58.3985,4.41007 a 3.2740518,4.1426778 0 0 0 -3.27421,4.1429 3.2740518,4.1426778 0 0 0 3.27421,4.14238 3.2740518,4.1426778 0 0 0 3.2737,-4.14238 3.2740518,4.1426778 0 0 0 -3.2737,-4.1429 z m -57.93083,7.6171 a 1.4699824,1.9377041 0 0 0 -1.47019,1.93787 1.4699824,1.9377041 0 0 0 1.47019,1.93787 1.4699824,1.9377041 0 0 0 1.4702,-1.93787 1.4699824,1.9377041 0 0 0 -1.4702,-1.93787 z m 69.02266,6.28076 a 3.5413209,3.4745038 0 0 0 -3.54138,3.47472 3.5413209,3.4745038 0 0 0 3.54138,3.47421 3.5413209,3.4745038 0 0 0 3.54087,-3.47421 3.5413209,3.4745038 0 0 0 -3.54087,-3.47472 z m -72.83121,2.27169 a 3.6749561,3.4745038 0 0 0 -3.67471,3.47473 3.6749561,3.4745038 0 0 0 3.67471,3.47472 3.6749561,3.4745038 0 0 0 3.67471,-3.47472 3.6749561,3.4745038 0 0 0 -3.67471,-3.47473 z m 41.22642,14.56656 a 2.5390603,3.2740518 0 0 0 -2.53938,3.27422 2.5390603,3.2740518 0 0 0 2.53938,3.2737 2.5390603,3.2740518 0 0 0 2.53887,-3.2737 2.5390603,3.2740518 0 0 0 -2.53887,-3.27422 z m 28.99875,12.29433 a 4.4099469,5.5458425 0 0 0 -4.41007,5.54592 4.4099469,5.5458425 0 0 0 4.41007,5.54592 4.4099469,5.5458425 0 0 0 4.41007,-5.54592 4.4099469,5.5458425 0 0 0 -4.41007,-5.54592 z m 9.82214,10.82415 a 5.1449385,5.7462943 0 0 0 -5.14491,5.74642 5.1449385,5.7462943 0 0 0 5.14491,5.74642 5.1449385,5.7462943 0 0 0 5.1449,-5.74642 5.1449385,5.7462943 0 0 0 -5.1449,-5.74642 z m -83.38819,1.20303 a 6.4812859,6.2140163 0 0 0 -6.48126,6.21409 6.4812859,6.2140163 0 0 0 6.48126,6.21409 6.4812859,6.2140163 0 0 0 6.48126,-6.21409 6.4812859,6.2140163 0 0 0 -6.48126,-6.21409 z m 37.61837,1.46968 a 2.4054255,2.8731472 0 0 0 -2.40553,2.87321 2.4054255,2.8731472 0 0 0 2.40553,2.8732 2.4054255,2.8731472 0 0 0 2.40502,-2.8732 2.4054255,2.8731472 0 0 0 -2.40502,-2.87321 z m -29.19925,15.50189 a 4.3431295,4.3431295 0 0 0 -4.3434,4.34289 4.3431295,4.3431295 0 0 0 4.3434,4.3434 4.3431295,4.3431295 0 0 0 4.34289,-4.3434 4.3431295,4.3431295 0 0 0 -4.34289,-4.34289 z m 68.42063,1.60352 a 3.9422255,4.9444862 0 0 0 -3.94188,4.9444 3.9422255,4.9444862 0 0 0 3.94188,4.9444 3.9422255,4.9444862 0 0 0 3.9424,-4.9444 3.9422255,4.9444862 0 0 0 -3.9424,-4.9444 z"
         style="opacity:1;fill:#4e433c;fill-opacity:1;stroke:none;stroke-width:0.25599998;stroke-linecap:square;stroke-miterlimit:4;stroke-dasharray:none;stroke-opacity:1" />
    </g>
    <g
       style="display:inline"
       id="g1554"
       transform="translate(-25.657875,-32.072342)"
       inkscape:export-xdpi="69.931702"
       inkscape:export-ydpi="69.931702">
      <path
         inkscape:connector-curvature="0"
         id="path1367"
         d="m 288.61788,644.04934 a 2.7060993,2.8063997 0 0 0 -2.7063,2.80655 2.7060993,2.8063997 0 0 0 2.7063,2.80603 2.7060993,2.8063997 0 0 0 2.70578,-2.80603 2.7060993,2.8063997 0 0 0 -2.70578,-2.80655 z m 57.36239,5.47925 a 1.3363475,1.8040692 0 0 0 -1.33636,1.80403 1.3363475,1.8040692 0 0 0 1.33636,1.80402 1.3363475,1.8040692 0 0 0 1.33635,-1.80402 1.3363475,1.8040692 0 0 0 -1.33635,-1.80403 z m 11.22567,14.56604 a 2.2717909,1.4699823 0 0 0 -2.27222,1.47019 2.2717909,1.4699823 0 0 0 2.27222,1.46968 2.2717909,1.4699823 0 0 0 2.27169,-1.46968 2.2717909,1.4699823 0 0 0 -2.27169,-1.47019 z m -72.76455,3.20704 a 1.4031649,1.5367998 0 0 0 -1.40302,1.53686 1.4031649,1.5367998 0 0 0 1.40302,1.53685 1.4031649,1.5367998 0 0 0 1.40353,-1.53685 1.4031649,1.5367998 0 0 0 -1.40353,-1.53686 z m 42.36227,13.2302 a 1.6704344,2.2049734 0 0 0 -1.67018,2.20503 1.6704344,2.2049734 0 0 0 1.67018,2.20504 1.6704344,2.2049734 0 0 0 1.6707,-2.20504 1.6704344,2.2049734 0 0 0 -1.6707,-2.20503 z m 22.45083,12.1605 a 2.8731472,2.8731472 0 0 0 -2.87322,2.87321 2.8731472,2.8731472 0 0 0 2.87322,2.87321 2.8731472,2.8731472 0 0 0 2.8732,-2.87321 2.8731472,2.8731472 0 0 0 -2.8732,-2.87321 z m 15.66881,9.62163 a 2.3051583,2.6059965 0 0 0 -2.30529,2.60604 2.3051583,2.6059965 0 0 0 2.30529,2.60605 2.3051583,2.6059965 0 0 0 2.30477,-2.60605 2.3051583,2.6059965 0 0 0 -2.30477,-2.60604 z m -87.23034,0.53485 a 2.6726951,3.2740518 0 0 0 -2.6727,3.27422 2.6726951,3.2740518 0 0 0 2.6727,3.2737 2.6726951,3.2740518 0 0 0 2.67271,-3.2737 2.6726951,3.2740518 0 0 0 -2.67271,-3.27422 z m 9.02064,16.97158 a 2.2049734,2.0045213 0 0 0 -2.20503,2.00453 2.2049734,2.0045213 0 0 0 2.20503,2.00452 2.2049734,2.0045213 0 0 0 2.20452,-2.00452 2.2049734,2.0045213 0 0 0 -2.20452,-2.00453 z m 71.96202,5.87974 a 2.2717909,1.8040692 0 0 0 -2.2717,1.80402 2.2717909,1.8040692 0 0 0 2.2717,1.80403 2.2717909,1.8040692 0 0 0 2.27169,-1.80403 2.2717909,1.8040692 0 0 0 -2.27169,-1.80402 z"
         style="opacity:1;fill:#4e433c;fill-opacity:1;stroke:none;stroke-width:0.25599998;stroke-linecap:square;stroke-miterlimit:4;stroke-dasharray:none;stroke-opacity:1" />
    </g>
  </g>
</svg>
